<svg width="54" height="65" viewBox="0 0 54 65" fill="none" xmlns="http://www.w3.org/2000/svg">
<path d="M42.1807 47.3184H42.1875V36.1775C42.1875 30.7269 41.0147 26.5292 34.6427 26.5292C31.5799 26.5292 29.5245 28.21 28.6858 29.803H28.5972V27.038H22.556V47.3184H28.8461V37.276C28.8461 34.6317 29.3473 32.0752 32.6219 32.0752C35.8476 32.0752 35.8957 35.0924 35.8957 37.4456V47.3184H42.1807ZM12.3137 27.0388H18.6114V47.3175H12.3137V27.0388ZM15.46 16.9434C14.4927 16.9436 13.5651 17.3279 12.8811 18.0119C12.1971 18.6959 11.8127 19.6236 11.8125 20.5909C11.8125 22.6041 13.4468 24.2722 15.46 24.2722C17.4732 24.2722 19.1076 22.6041 19.1076 20.5909C19.1069 19.6237 18.7224 18.6963 18.0385 18.0124C17.3546 17.3285 16.4272 16.944 15.46 16.9434Z" fill="white"/>
</svg>
